<?xml version="1.0" ?><svg height="240px" version="1.1" viewBox="0 0 240 240" width="240px" xmlns="http://www.w3.org/2000/svg" xmlns:xlink="http://www.w3.org/1999/xlink"><title/><desc/><g fill="none" fill-rule="evenodd" id="grow-portfolio" stroke="none" stroke-width="1"><g id="bounding-box"><polygon id="shape" points="0 0 240 0 240 240 0 240"/></g><path d="M62.2056112,120 L62.2056112,112.444988 C70.2740709,111.124694 74.6016993,105.623472 74.6016993,99.3887531 C74.6016993,92.8606357 70.9342176,88.8997555 62.7190587,85.8190709 C56.4843399,83.3251834 53.8437531,81.6381418 53.8437531,78.6308068 C53.8437531,76.1369193 55.6774939,73.4963325 60.8119682,73.4963325 C65.7997433,73.4963325 69.0271271,75.1833741 70.7875183,75.99022 L72.7679584,69.2420538 C70.4207702,68.0684597 67.2667359,66.9682152 62.645709,66.8215159 L62.645709,60 L56.6310391,60 L56.6310391,67.1882641 C49.2227262,68.5085575 44.8217482,73.3496333 44.8217482,79.6577017 C44.8217482,86.4792176 49.8095232,90 57.5112347,92.7872861 C62.9391076,94.7677262 65.5063447,96.8948655 65.5063447,100.195599 C65.5063447,103.716381 62.3523105,105.99022 57.7312836,105.99022 C53.256956,105.99022 49.1493765,104.449878 46.2887408,102.762836 L44.3083007,109.657702 C46.9488875,111.418093 51.5699144,112.738386 56.1909413,112.885086 L56.1909413,120 L62.2056112,120 Z" fill="#573938" fill-rule="nonzero" id="$"/><rect height="150" id="Rectangle" rx="15" stroke="#573938" stroke-width="10" width="190" x="25" y="45"/><rect height="113" id="Rectangle" rx="8" stroke="#573938" stroke-width="10" width="20" x="175" y="65"/><rect height="65" id="Rectangle-Copy" rx="8" stroke="#573938" stroke-width="10" width="20" x="135" y="110"/><rect height="40" id="Rectangle-Copy-2" rx="8" stroke="#573938" stroke-width="10" width="20" x="95" y="135"/></g></svg>